<?xml version="1.0" encoding="UTF-8" standalone="no"?>
<!DOCTYPE svg PUBLIC "-//W3C//DTD SVG 1.1//EN" "http://www.w3.org/Graphics/SVG/1.1/DTD/svg11.dtd">
<svg width="100%" height="100%" viewBox="0 0 200 200" version="1.1" xmlns="http://www.w3.org/2000/svg" xmlns:xlink="http://www.w3.org/1999/xlink" xml:space="preserve" xmlns:serif="http://www.serif.com/" style="fill-rule:evenodd;clip-rule:evenodd;stroke-linejoin:round;stroke-miterlimit:2;">
    <path d="M169.648,18.75L140.625,18.75C139.141,18.75 137.656,19.316 136.523,20.449C135.391,21.582 134.824,23.066 134.824,24.551C134.824,26.035 135.391,27.52 136.523,28.652C137.656,29.785 139.141,30.352 140.625,30.352L161.426,30.352L113.301,78.477C111.035,80.742 111.035,84.414 113.301,86.68C115.566,88.945 119.238,88.945 121.504,86.68L169.629,38.555L169.629,59.375C169.629,60.859 170.195,62.344 171.328,63.477C172.461,64.609 173.945,65.176 175.43,65.176C176.914,65.176 178.398,64.609 179.531,63.477C180.664,62.344 181.23,60.859 181.23,59.375L181.23,30.352C181.25,23.945 176.055,18.75 169.648,18.75ZM175.449,134.824C173.965,134.824 172.48,135.391 171.348,136.523C170.215,137.656 169.648,139.141 169.648,140.625L169.648,161.426L121.523,113.301C119.258,111.035 115.586,111.035 113.32,113.301C111.055,115.566 111.055,119.238 113.32,121.504L161.445,169.629L140.625,169.629C139.141,169.629 137.656,170.195 136.523,171.328C135.391,172.461 134.824,173.945 134.824,175.43C134.824,176.914 135.391,178.398 136.523,179.531C137.656,180.664 139.141,181.23 140.625,181.23L169.648,181.23C176.055,181.23 181.25,176.035 181.25,169.629L181.25,140.625C181.25,139.141 180.684,137.656 179.551,136.523C178.418,135.391 176.934,134.824 175.449,134.824ZM78.477,113.301L30.352,161.426L30.352,140.625C30.352,139.141 29.785,137.656 28.652,136.523C27.52,135.391 26.035,134.824 24.551,134.824C23.066,134.824 21.582,135.391 20.449,136.523C19.316,137.656 18.75,139.141 18.75,140.625L18.75,169.648C18.75,176.055 23.945,181.25 30.352,181.25L59.375,181.25C60.859,181.25 62.344,180.684 63.477,179.551C64.609,178.418 65.176,176.934 65.176,175.449C65.176,173.965 64.609,172.48 63.477,171.348C62.344,170.215 60.859,169.648 59.375,169.648L38.574,169.648L86.699,121.523C88.965,119.258 88.965,115.586 86.699,113.32C84.434,111.035 80.742,111.035 78.477,113.301ZM38.574,30.352L59.375,30.352C60.859,30.352 62.344,29.785 63.477,28.652C64.609,27.52 65.176,26.035 65.176,24.551C65.176,23.066 64.609,21.582 63.477,20.449C62.344,19.316 60.859,18.75 59.375,18.75L30.352,18.75C23.945,18.75 18.75,23.945 18.75,30.352L18.75,59.375C18.75,60.859 19.316,62.344 20.449,63.477C21.582,64.609 23.066,65.176 24.551,65.176C26.035,65.176 27.52,64.609 28.652,63.477C29.785,62.344 30.352,60.859 30.352,59.375L30.352,38.574L78.477,86.699C80.742,88.965 84.414,88.965 86.68,86.699C88.945,84.434 88.945,80.762 86.68,78.496L38.574,30.352Z" style="fill:rgb(26,179,125);fill-rule:nonzero;"/>
</svg>
